<svg xmlns="http://www.w3.org/2000/svg" viewBox="0 0 218.91 43.92"><g data-name="Warstwa 2"><path d="M37.08 37.46V13.58a14.24 14.24 0 0 0-1.4-6.69 10.91 10.91 0 0 0-3.76-4.19A14.9 14.9 0 0 0 26.34.58 38.61 38.61 0 0 0 19.46 0a27.27 27.27 0 0 0-6.12.68 19.46 19.46 0 0 0-5.25 2 11.25 11.25 0 0 0-3.71 3.24A7.58 7.58 0 0 0 3 10.4a5.3 5.3 0 0 0 .52 2.6 4.18 4.18 0 0 0 1.3 1.5 4.16 4.16 0 0 0 1.78.67 14.85 14.85 0 0 0 2 .14c.45 0 1 0 1.69-.05a5.48 5.48 0 0 0 1.92-.43 4 4 0 0 0 1.59-1.2 3.46 3.46 0 0 0 .68-2.26c0-.2 0-.55-.1-1.07s-.13-1.05-.19-1.63S14 7.56 14 7.08a8 8 0 0 1-.1-1c0-1.8.54-3 1.64-3.71a7.2 7.2 0 0 1 3.85-1q3.47 0 4.72 2.12a9.13 9.13 0 0 1 1.25 4.72v5.87a7.28 7.28 0 0 1-.53 3 5.21 5.21 0 0 1-1.88 2.07 15.73 15.73 0 0 1-3.8 1.73c-1.64.55-3.77 1.21-6.41 2q-2.4.78-4.67 1.59a16 16 0 0 0-4 2.12 10.57 10.57 0 0 0-2.89 3.18A9 9 0 0 0 0 34.38 8.13 8.13 0 0 0 1.25 39a8.66 8.66 0 0 0 3.28 2.93A16.47 16.47 0 0 0 9 43.44a24.84 24.84 0 0 0 4.72.47 17.93 17.93 0 0 0 7.8-1.34 9.31 9.31 0 0 0 4.23-5.2h.2a7.4 7.4 0 0 0 2.93 4.81c1.58 1.16 4 1.72 7.27 1.74h1zm-11.75-6a17 17 0 0 1-.58 4.77 9.07 9.07 0 0 1-1.54 3.18A6.25 6.25 0 0 1 21 41.22a5.54 5.54 0 0 1-2.45.58 5.39 5.39 0 0 1-3.47-1 6.54 6.54 0 0 1-1.88-2.46 10.06 10.06 0 0 1-.77-3c-.09-1-.14-1.92-.14-2.69a10.56 10.56 0 0 1 .91-4.72 9.84 9.84 0 0 1 2.36-3.08 13.13 13.13 0 0 1 3.28-2.07c1.21-.55 2.44-1.11 3.66-1.69a7.45 7.45 0 0 0 1.87-1.2 2.85 2.85 0 0 0 .73-1.11h.19zM217.37 0l-9.81 26.39h-.05l-1.92 5.2.8-7.69L197.04 0H184.6l2.31 5.89-7.6 20.5h-.05l-1.92 5.2.8-7.7L168.8 0h-12.44l2.31 5.9-3.14 8.46-6.36 17.23.79-7.54L140.56 0h-12.45l2.32 5.89-7.61 20.5h-.06l-1.92 5.2.81-7.72L112.31 0H99.87l2.31 5.9-5.25 14.16-4.26 11.53.79-7.57L84.07 0H71.63l2.31 5.89-7.6 20.5h-.08l-1.92 5.2.81-7.75L55.82 0H43.38l17.27 43.92h.68L74.72 7.88 88.9 43.92h.67L102.96 7.9l14.18 36.02h.68L131.2 7.9l13.22 33.56.97 2.46h.67l13.4-35.98 14.17 35.98h.67L187.69 7.9l14.19 36.02h.67L218.91 0h-1.54z" fill="#fff" data-name="Warstwa 1"/></g></svg>