<svg xmlns="http://www.w3.org/2000/svg" viewBox="0 0 550.84 91.37"><g data-name="Warstwa 2"><g fill="#fff" data-name="Warstwa 1"><text transform="translate(222.41 73.68)" font-size="86.73" font-family="Montserrat-Hairline,Montserrat" letter-spacing="-.02em">soft<tspan x="137.9" y="0" letter-spacing="-.03em">w</tspan><tspan x="205.8" y="0">are</tspan></text><path d="M37.08 67.22V43.34a14.24 14.24 0 0 0-1.4-6.69 10.91 10.91 0 0 0-3.76-4.19 14.73 14.73 0 0 0-5.58-2.12 38.61 38.61 0 0 0-6.88-.58 27.27 27.27 0 0 0-6.12.67 19.47 19.47 0 0 0-5.25 2 11.25 11.25 0 0 0-3.71 3.27A7.58 7.58 0 0 0 3 40.16a5.33 5.33 0 0 0 .53 2.6 4.26 4.26 0 0 0 1.3 1.5 4.16 4.16 0 0 0 1.78.67 14.85 14.85 0 0 0 2 .14h1.69a5.48 5.48 0 0 0 1.92-.43 4.19 4.19 0 0 0 1.59-1.2 3.47 3.47 0 0 0 .68-2.27c0-.19 0-.54-.1-1.06s-.13-1.06-.19-1.63-.2-1.16-.2-1.64a8 8 0 0 1-.1-1c0-1.8.54-3 1.64-3.71a7.2 7.2 0 0 1 3.85-1c2.31 0 3.88.7 4.72 2.12A9.13 9.13 0 0 1 25.33 38v5.87a7.31 7.31 0 0 1-.53 3 5.28 5.28 0 0 1-1.88 2.07 15.73 15.73 0 0 1-3.8 1.73c-1.64.55-3.77 1.2-6.41 2q-2.4.78-4.67 1.59a16 16 0 0 0-4 2.12 10.57 10.57 0 0 0-2.89 3.18A9 9 0 0 0 0 64.14a8.13 8.13 0 0 0 1.25 4.58 8.75 8.75 0 0 0 3.28 2.93A16.12 16.12 0 0 0 9 73.19a24.08 24.08 0 0 0 4.72.48c3.4 0 6-.44 7.8-1.35a9.28 9.28 0 0 0 4.23-5.2h.2a7.42 7.42 0 0 0 2.93 4.82c1.58 1.16 4 1.71 7.27 1.73h1zm-11.75-6a17 17 0 0 1-.58 4.78 9.16 9.16 0 0 1-1.54 3.18A6.25 6.25 0 0 1 21 71a5.68 5.68 0 0 1-2.45.58 5.39 5.39 0 0 1-3.47-1 6.54 6.54 0 0 1-1.88-2.46 10.14 10.14 0 0 1-.77-3c-.09-1-.14-1.92-.14-2.69a10.56 10.56 0 0 1 .91-4.72 10 10 0 0 1 2.4-3.11 13.1 13.1 0 0 1 3.28-2.06c1.21-.55 2.44-1.11 3.66-1.69a7.74 7.74 0 0 0 1.87-1.2 2.92 2.92 0 0 0 .73-1.11h.19zm192.04-31.46l-9.81 26.39h-.05l-1.92 5.2.8-7.69-9.35-23.9H184.6l2.31 5.89-7.6 20.5h-.05l-1.92 5.2.8-7.7-9.34-23.89h-12.44l2.31 5.9-3.14 8.46-6.36 17.23.79-7.55-9.4-24.04h-12.45l2.32 5.89-7.61 20.5h-.06l-1.92 5.2.81-7.72-9.34-23.87H99.87l2.31 5.9-5.25 14.16-4.26 11.53.79-7.57-9.39-24.02H71.63l2.31 5.89-7.6 20.5h-.08l-1.92 5.2.81-7.75-9.33-23.84H43.38l17.27 43.91h.68l13.39-36.03L88.9 73.67h.67l13.39-36.01 14.18 36.01h.68l13.38-36.01 13.22 33.56.97 2.45h.67l13.4-35.97 14.17 35.97h.67l13.39-36.01 14.19 36.01h.67l16.36-43.91h-1.54z"/><circle cx="217.05" cy="71.81" r="1.86"/></g></g></svg>