<svg xmlns="http://www.w3.org/2000/svg" width="395.785" height="267.318"><path fill="#FFF" d="M202.232 66.77c28.289-6.831 57.491-9.801 86.582-7.937 31.909 2.044 68.209 9.702 90.543 34.539 26.313 28.597 19.527 67.77-9.759 92.021 2.264-.393 11.731-2.229 16.118-2.247.879-.007 2.065.301-.193 3.865-8.319 13.126-18.899 23.106-30.523 32.978.82 13.499.559 30.125-2.013 44.366-.415 2.3-2.05 1.991-3.063 1.205-8.784-6.817-18.167-16.187-24.883-24.29-18.755 10.226-36.529 17.512-56.062 23.855-5.735 1.784-3.66-1.049-1.881-3.624 10.038-14.463 18.958-28.848 27.938-43.993-3.479-2.132-7.659-4.578-10.507-6.886-26.123 20.115-56.827 34.371-88.278 43.866-43.538 13.144-86.075 15.865-119.645 9.644-36.559-6.777-63.306-24.317-71.569-51.011-10.633-34.345 13.266-67.272 37.862-88.693 3.38-10.44 12.368-30.801 17.449-41.356-17.884-11.48-42.597-25.54-54.322-33.384-9.75-6.574-7.433-7.49 5.242-9.21 24.459-2.487 48.269-2.498 71.765-.809 7.063-12.305 15.099-24.751 23.065-36.519 2.175-3.102 3.111-5.127 5.882-.108 8.483 14.371 17.23 28.821 24.351 43.937 22.78 4.63 44.158 11.891 65.901 19.791"/><linearGradient id="a" gradientUnits="userSpaceOnUse" x1="81.954" y1="30.497" x2="342.954" y2="174.497"><stop offset="0" stop-color="#fd0"/><stop offset="1" stop-color="#f6881f"/></linearGradient><path fill="url(#a)" d="M327.761 175.967c-3.054 7.705-5.806 15.899-8.583 23.345-8.683.513-17.309.705-24.801.854-.541.013-.825.45-.158.914 5.927 3.779 11.428 6.744 18.755 11.972-4.48 9.045-9.823 17.124-15.04 25.733-.731 1.124-.88 1.943.95 1.096 9.747-4.433 19.85-10.438 27.989-15.886 5.004 4.368 9.604 9.426 13.938 14.866.09.111.296.189.323-.043.943-8.272.584-17.34-.353-24.837 6.986-5.46 13.729-11.237 19.77-17.795.495-.527.001-.673-.328-.629-7.156.87-15.691 1.906-22.703 2.444-2.513-8.314-4.823-15.062-7.911-22.096-.345-.729-.624-1.095-.905-1.095-.288.002-.579.384-.943 1.157M271.686 71.894c-12.118 0-23.909.825-34.648 2.199-27.181 3.635-54.303 10.785-78.711 22.069-1.419.693-.786 1.631.368 1.422 117.392-20.53 219.152.355 183.642 88.489-.455.817.291.801.592.619 56.41-28.736 51.128-86.937-10.696-106.499-18.862-5.969-40.166-8.3-60.534-8.3l-.013.001"/><radialGradient id="b" cx="199.691" cy="111.974" r="137.208" gradientUnits="userSpaceOnUse"><stop offset="0" stop-color="#00acee"/><stop offset="1" stop-color="#273b97"/></radialGradient><path fill="url(#b)" d="M164.283 169.271c-.962-5.312-4.418-23.642 2.926-24.334 7.836-.732 10.388 18.791 11.177 23.543.721 4.346 3.801 23.684-2.809 24.802a3.906 3.906 0 0 1-.631.054c-6.883-.003-9.81-19.351-10.663-24.065m1.207-40.768c-.247 0-.499.003-.749.008-23.764.94-26.196 26.584-23.124 44.455 3.091 18.313 14.351 42.711 37.264 38.213 20.153-3.957 23.033-26.381 20.468-43.379-2.869-19.066-12.461-39.295-33.854-39.297h-.005m-60.754 84.907c14.409 1.014 28.84 1.069 43.268.428a3376.254 3376.254 0 0 0-3.589-20.655c-5.954.273-11.911.362-17.87.318-3.916-21.311-7.553-42.672-11.37-64-8.66-.468-17.309-1.059-25.953-1.747 4.972 28.588 10.296 57.113 15.514 85.656m88.251-85.819a2460.32 2460.32 0 0 1 3.125 18.918c3.14-.45 6.278-.913 9.415-1.371a4690.8 4690.8 0 0 0 9.32 55.646c6.021-1.83 12.043-3.662 18.037-5.58-2.98-17.74-5.924-35.484-8.873-53.229a359.263 359.263 0 0 0 8.574-1.731l-2.896-17.438a860.451 860.451 0 0 1-36.702 4.785M232 122.53l2.9 17.387c2.754-.592 5.506-1.2 8.257-1.813 2.812 16.895 5.565 33.797 8.502 50.669a454.54 454.54 0 0 0 16.091-6.569c-2.784-16.101-5.381-32.231-8.132-48.338 2.54-.739 5.069-1.521 7.599-2.301-.896-5.345-1.789-10.692-2.68-16.039A554.107 554.107 0 0 1 232 122.53m53.667 17.084c-.944-4.616-3.169-17.517 1.478-19.063 4.475-1.489 6.763 12.864 7.424 16.326.756 3.974 3.382 16.97-1.38 18.906a1.993 1.993 0 0 1-.752.153c-4.122.001-6.277-14.179-6.77-16.322m4.223-32.238c-2.401 0-5.013.626-7.824 2.023-14.051 6.979-13.296 25.035-11.163 37.805 2.065 12.43 9.002 30.406 24.67 22.123 13.921-7.358 15.189-23.111 12.816-38.403-1.628-11.73-8.071-23.547-18.499-23.548"/><linearGradient id="c" gradientUnits="userSpaceOnUse" x1="37.682" y1="110.741" x2="298.682" y2="254.741"><stop offset="0" stop-color="#fd0"/><stop offset="1" stop-color="#f6881f"/></linearGradient><path fill="url(#c)" d="M52.873 133.772c-28.128 24.076-42.207 51.589-34.849 75.358 13.281 42.899 91.353 57.371 174.341 32.318 48.622-14.681 88.161-39.676 109.899-66.486.407-.502.105-1.102-.584-.537-20.225 16.932-46.965 31.719-77.938 41.819-80.23 26.165-158.514 10.986-174.813-33.894-5.449-15.003-3.279-31.431 5.02-47.63.362-.694.193-1.298-.303-1.298-.205.001-.467.105-.773.35m55.023-108.336c-5.865 9.156-11.995 18.46-17.156 28.489-18.185-1.689-36.707-2.184-55.539-1.574-.471.016-.562.455-.145.645 16.08 8.24 28.479 15.567 42.708 25.323-6.135 12.578-14.377 28.722-19.203 45.711-.127.408.164.617.514.384 14.768-9.811 30.208-18.344 46.169-25.892 12.373 10.27 23.961 21.499 34.444 33.696.333.369.581.162.598-.203.795-15.782-.75-31.299-4.54-46.557 12.708-4.935 25.668-9.395 38.807-13.512.426-.134.386-.507.006-.649-15.61-5.209-31.533-9.302-47.75-12.347-4.849-11.352-10.929-22.515-18.267-33.584-.09-.125-.189-.174-.285-.174-.147 0-.282.112-.361.244"/></svg>